<svg id="svg" version="1.1" xmlns="http://www.w3.org/2000/svg" xmlns:xlink="http://www.w3.org/1999/xlink" width="400" height="400" viewBox="0, 0, 400,400"><g id="svgg"><path id="path0" d="M251.026 100.264 C 251.026 100.459,252.830 102.365,255.034 104.500 C 257.239 106.636,263.206 112.501,268.296 117.535 C 273.386 122.568,277.756 126.686,278.006 126.686 C 278.256 126.686,282.625 122.568,287.715 117.535 C 292.805 112.501,298.803 106.607,301.043 104.436 C 303.284 102.266,305.043 100.421,304.953 100.338 C 304.863 100.254,298.807 106.054,291.496 113.228 C 284.184 120.401,278.075 126.232,277.921 126.185 C 277.639 126.099,271.398 120.025,258.162 106.956 C 254.238 103.081,251.026 100.069,251.026 100.264 M335.529 130.049 C 335.503 130.524,334.291 131.998,332.649 133.550 C 328.178 137.777,308.963 156.693,310.236 155.614 C 311.290 154.721,316.231 149.956,330.543 136.033 C 334.696 131.993,335.918 130.581,335.769 129.994 C 335.587 129.275,335.572 129.279,335.529 130.049 M334.959 138.237 C 332.412 140.701,330.479 142.717,330.664 142.717 C 330.849 142.717,333.018 140.694,335.484 138.221 C 341.249 132.440,340.941 132.449,334.959 138.237 M270.577 140.872 C 266.813 144.586,260.902 150.391,257.439 153.773 C 253.977 157.155,251.265 159.922,251.411 159.922 C 251.557 159.922,257.497 154.203,264.610 147.214 C 271.723 140.225,277.781 134.506,278.072 134.506 C 278.364 134.506,281.239 137.158,284.462 140.398 C 287.685 143.639,293.666 149.468,297.752 153.352 C 301.838 157.235,299.198 154.504,291.887 147.281 C 284.575 140.058,278.328 134.143,278.006 134.135 C 277.683 134.127,274.340 137.159,270.577 140.872 M299.947 148.499 C 304.546 153.025,308.386 156.651,308.480 156.557 C 308.669 156.369,292.598 140.657,291.974 140.419 C 291.760 140.337,295.348 143.974,299.947 148.499 M318.380 154.519 C 315.316 157.565,312.861 160.108,312.924 160.171 C 312.987 160.234,315.579 157.740,318.684 154.629 C 321.789 151.519,324.244 148.975,324.140 148.977 C 324.035 148.979,321.443 151.473,318.380 154.519 M92.401 159.084 C 83.762 162.069,83.217 164.069,83.366 192.251 L 83.480 213.685 84.420 216.019 C 88.826 226.960,106.721 227.285,111.675 216.514 C 112.765 214.144,112.800 213.867,112.934 206.549 L 113.073 199.022 108.149 199.022 L 103.226 199.022 103.226 204.900 C 103.226 213.047,102.428 214.663,98.408 214.663 C 93.519 214.663,93.350 213.784,93.521 189.247 C 93.667 168.428,93.822 167.742,98.357 167.742 C 102.028 167.742,103.226 169.848,103.226 176.305 L 103.226 181.036 108.113 181.036 L 113.001 181.036 113.001 175.603 C 113.001 167.525,111.461 163.469,107.320 160.645 C 103.973 158.362,96.694 157.600,92.401 159.084 M194.062 159.063 C 189.942 160.529,187.596 162.733,185.993 166.644 C 184.967 169.145,184.419 209.131,185.350 213.490 C 186.853 220.526,191.782 224.168,199.804 224.168 C 210.647 224.168,214.648 219.157,214.658 205.572 L 214.663 199.022 209.775 199.022 L 204.888 199.022 204.887 204.985 C 204.886 213.054,204.069 214.643,199.908 214.657 C 195.344 214.673,195.126 213.588,195.152 191.007 C 195.175 170.617,195.226 170.120,197.469 168.596 C 201.825 165.636,204.888 168.909,204.888 176.527 L 204.888 181.036 209.816 181.036 L 214.745 181.036 214.577 174.878 C 214.330 165.777,212.756 162.515,207.323 159.840 C 203.980 158.194,197.562 157.818,194.062 159.063 M8.211 163.832 L 8.211 168.524 13.490 168.524 L 18.768 168.524 18.768 195.894 L 18.768 223.265 23.851 223.265 L 28.935 223.265 28.935 195.894 L 28.935 168.524 34.213 168.524 L 39.492 168.524 39.492 163.832 L 39.492 159.140 23.851 159.140 L 8.211 159.140 8.211 163.832 M46.530 191.202 L 46.530 223.265 51.613 223.265 L 56.696 223.265 56.696 210.415 L 56.696 197.566 61.290 197.363 C 72.685 196.860,76.613 191.973,76.613 178.299 C 76.613 162.572,72.761 159.140,55.113 159.140 L 46.530 159.140 46.530 191.202 M147.801 191.202 L 147.801 223.265 153.079 223.265 L 158.358 223.265 158.358 210.415 L 158.358 197.566 162.952 197.363 C 175.336 196.817,179.615 189.991,177.988 173.382 C 176.838 161.647,173.069 159.140,156.579 159.140 L 147.801 159.140 147.801 191.202 M222.874 191.202 L 222.874 223.265 236.755 223.265 L 250.635 223.265 250.635 218.573 L 250.635 213.881 241.838 213.881 L 233.040 213.881 233.040 204.301 L 233.040 194.721 239.883 194.721 L 246.725 194.721 246.725 189.834 L 246.725 184.946 239.883 184.946 L 233.040 184.946 233.040 176.735 L 233.040 168.524 241.838 168.524 L 250.635 168.524 250.635 163.832 L 250.635 159.140 236.755 159.140 L 222.874 159.140 222.874 191.202 M312.805 160.839 C 312.805 160.980,313.157 161.447,313.587 161.877 C 314.018 162.307,314.370 162.510,314.370 162.328 C 314.370 162.147,314.018 161.680,313.587 161.290 C 313.157 160.901,312.805 160.698,312.805 160.839 M358.462 168.794 C 354.003 173.240,350.402 176.925,350.459 176.982 C 350.516 177.039,354.261 173.400,358.780 168.895 C 363.300 164.390,366.901 160.705,366.783 160.706 C 366.665 160.708,362.921 164.347,358.462 168.794 M259.383 169.193 C 276.375 185.932,277.773 187.292,277.985 187.292 C 278.104 187.292,284.109 181.442,291.329 174.291 C 298.548 167.141,301.979 163.665,298.953 166.568 C 295.927 169.471,289.989 175.262,285.759 179.437 L 278.067 187.029 264.915 174.159 C 257.682 167.081,251.622 161.240,251.448 161.178 C 251.274 161.116,254.845 164.723,259.383 169.193 M314.761 162.706 C 314.761 162.974,315.462 163.703,319.782 167.928 C 321.536 169.644,322.972 170.960,322.972 170.854 C 322.972 170.748,321.124 168.819,318.866 166.569 C 316.608 164.319,314.761 162.580,314.761 162.706 M307.331 165.372 C 305.390 167.345,304.910 168.284,306.763 166.485 C 307.808 165.471,308.583 164.582,308.486 164.510 C 308.388 164.438,307.869 164.826,307.331 165.372 M312.198 167.648 C 313.907 169.407,315.385 170.767,315.483 170.669 C 315.580 170.572,314.598 169.477,313.301 168.237 C 309.412 164.520,308.889 164.241,312.198 167.648 M64.021 169.325 C 65.615 170.333,66.080 172.363,66.080 178.320 C 66.080 186.637,65.394 187.683,59.933 187.683 L 56.696 187.683 56.696 178.055 L 56.696 168.426 59.922 168.600 C 61.731 168.697,63.531 169.016,64.021 169.325 M165.981 169.695 C 167.382 171.011,167.738 172.755,167.738 178.299 C 167.738 186.569,167.012 187.683,161.629 187.683 L 158.358 187.683 158.358 178.055 L 158.358 168.426 161.679 168.600 C 164.490 168.748,165.151 168.916,165.981 169.695 M293.755 178.789 C 288.116 184.434,283.370 189.228,283.209 189.443 C 283.048 189.658,287.746 185.083,293.650 179.277 C 299.553 173.470,304.460 168.675,304.554 168.622 C 304.648 168.568,304.563 168.524,304.366 168.525 C 304.169 168.526,299.394 173.144,293.755 178.789 M316.325 171.312 C 316.325 171.412,320.635 175.791,325.904 181.044 C 331.173 186.297,335.484 190.771,335.484 190.987 C 335.484 191.203,334.208 192.703,332.649 194.321 L 329.814 197.263 332.845 194.340 C 334.511 192.733,335.875 191.222,335.875 190.984 C 335.875 190.676,321.459 176.028,316.495 171.294 C 316.401 171.204,316.325 171.212,316.325 171.312 M326.882 174.976 C 327.611 175.728,328.296 176.344,328.404 176.344 C 328.511 176.344,328.002 175.728,327.273 174.976 C 326.543 174.223,325.858 173.607,325.751 173.607 C 325.643 173.607,326.152 174.223,326.882 174.976 M344.618 182.246 C 341.803 185.038,339.640 187.271,339.810 187.209 C 340.338 187.017,350.054 177.490,349.890 177.325 C 349.804 177.240,347.432 179.454,344.618 182.246 M119.648 191.202 L 119.648 195.894 129.814 195.894 L 139.980 195.894 139.980 191.202 L 139.980 186.510 129.814 186.510 L 119.648 186.510 119.648 191.202 M282.014 189.897 C 281.017 190.300,281.644 191.137,286.804 196.285 C 289.707 199.183,292.082 201.452,292.082 201.328 C 292.082 201.203,289.872 198.918,287.170 196.250 C 283.237 192.365,282.291 191.222,282.424 190.518 C 282.515 190.034,282.570 189.652,282.546 189.669 C 282.522 189.686,282.283 189.789,282.014 189.897 M268.812 203.230 C 264.078 207.905,258.138 213.738,255.613 216.191 C 253.087 218.645,251.079 220.711,251.151 220.783 C 251.223 220.855,257.191 215.108,264.413 208.013 C 271.635 200.918,277.782 195.112,278.073 195.112 C 278.364 195.112,281.239 197.764,284.462 201.004 C 287.685 204.245,293.666 210.080,297.752 213.972 C 301.838 217.864,299.198 215.134,291.887 207.905 C 284.575 200.677,278.328 194.755,278.006 194.747 C 277.683 194.738,273.546 198.556,268.812 203.230 M331.672 202.170 C 327.747 206.039,324.536 209.332,324.536 209.486 C 324.536 209.641,327.791 206.516,331.769 202.542 C 338.406 195.912,339.197 195.090,338.905 195.124 C 338.851 195.130,335.596 198.301,331.672 202.170 M319.059 207.512 C 313.576 213.042,309.208 217.484,309.352 217.385 C 310.092 216.873,329.522 197.458,329.294 197.458 C 329.147 197.458,324.541 201.983,319.059 207.512 M352.084 206.745 C 356.805 211.514,360.726 215.357,360.797 215.286 C 360.910 215.174,344.473 198.739,343.764 198.255 C 343.619 198.156,347.362 201.976,352.084 206.745 M300.206 209.349 C 304.448 213.524,308.094 217.080,308.309 217.253 C 308.524 217.425,305.182 214.010,300.883 209.663 C 296.584 205.316,292.938 201.760,292.781 201.760 C 292.624 201.760,295.965 205.175,300.206 209.349 M316.904 216.716 L 312.610 221.114 317.009 216.820 C 319.428 214.458,321.408 212.479,321.408 212.421 C 321.408 212.139,320.893 212.630,316.904 216.716 M364.698 218.963 C 365.819 220.126,366.794 220.998,366.865 220.900 C 366.936 220.803,366.019 219.852,364.827 218.786 L 362.659 216.849 364.698 218.963 M312.805 221.568 C 312.805 221.781,313.289 222.382,313.881 222.903 L 314.956 223.851 313.978 222.678 C 313.441 222.033,312.957 221.432,312.903 221.342 C 312.849 221.253,312.805 221.354,312.805 221.568 M253.763 224.483 C 255.376 226.002,261.377 231.893,267.097 237.572 C 272.818 243.252,277.721 247.898,277.994 247.898 C 278.266 247.898,283.175 243.253,288.902 237.574 C 294.630 231.896,300.635 226.006,302.248 224.485 C 303.861 222.964,305.024 221.715,304.831 221.710 C 304.639 221.705,299.624 226.507,293.688 232.382 C 287.751 238.257,281.794 244.090,280.450 245.345 L 278.006 247.626 275.562 245.345 C 274.218 244.090,268.261 238.257,262.324 232.382 C 256.387 226.507,251.373 221.705,251.181 221.710 C 250.988 221.715,252.151 222.963,253.763 224.483 M328.718 237.439 C 333.546 242.224,337.615 246.220,337.761 246.320 C 337.906 246.419,334.068 242.504,329.231 237.620 C 324.394 232.735,320.325 228.739,320.188 228.739 C 320.052 228.739,323.890 232.654,328.718 237.439 M9.775 237.732 C 9.775 238.340,10.036 238.514,10.948 238.514 L 12.121 238.514 12.121 242.815 L 12.121 247.116 13.294 247.116 L 14.467 247.116 14.467 242.815 L 14.467 238.514 15.640 238.514 C 16.553 238.514,16.813 238.340,16.813 237.732 C 16.813 237.008,16.553 236.950,13.294 236.950 C 10.036 236.950,9.775 237.008,9.775 237.732 M18.377 241.990 L 18.377 247.116 19.550 247.116 C 20.695 247.116,20.723 247.070,20.723 245.184 C 20.723 243.104,21.070 242.624,22.291 243.012 C 22.930 243.215,23.069 243.605,23.069 245.188 C 23.069 247.083,23.090 247.116,24.279 247.116 L 25.488 247.116 25.265 244.868 C 24.970 241.894,24.968 241.675,25.237 240.078 C 25.619 237.803,24.842 237.191,21.348 237.015 L 18.377 236.865 18.377 241.990 M29.145 237.439 C 28.945 238.063,26.979 246.677,26.979 246.928 C 26.979 247.670,29.286 247.010,29.396 246.237 C 29.593 244.852,31.876 244.756,32.218 246.118 C 32.417 246.911,32.710 247.116,33.641 247.116 C 34.960 247.116,34.961 247.638,33.627 242.033 C 33.242 240.420,32.818 238.617,32.683 238.025 C 32.416 236.850,29.488 236.365,29.145 237.439 M36.364 242.033 L 36.364 247.116 37.537 247.116 L 38.710 247.116 38.710 242.033 L 38.710 236.950 37.537 236.950 L 36.364 236.950 36.364 242.033 M41.056 242.033 L 41.056 247.116 42.018 247.116 C 42.958 247.116,42.983 247.039,43.093 243.695 L 43.206 240.274 44.422 243.597 C 45.568 246.731,45.707 246.928,46.866 247.043 L 48.094 247.166 48.094 242.058 L 48.094 236.950 47.133 236.950 C 46.212 236.950,46.168 237.066,46.058 239.785 L 45.943 242.620 44.975 239.785 L 44.006 236.950 42.531 236.950 L 41.056 236.950 41.056 242.033 M54.350 242.033 L 54.350 247.116 55.523 247.116 C 56.666 247.116,56.696 247.067,56.696 245.213 L 56.696 243.309 58.275 243.097 C 60.514 242.797,60.997 242.257,60.997 240.052 C 60.997 237.571,60.158 236.950,56.804 236.950 L 54.350 236.950 54.350 242.033 M63.599 237.665 C 62.656 238.708,62.655 245.992,63.599 246.775 C 64.572 247.583,68.234 247.476,69.096 246.614 C 70.150 245.560,70.115 238.951,69.050 237.773 C 68.048 236.666,64.566 236.597,63.599 237.665 M71.163 237.732 C 71.163 238.340,71.424 238.514,72.336 238.514 L 73.509 238.514 73.509 242.815 L 73.509 247.116 74.682 247.116 L 75.855 247.116 75.855 242.815 L 75.855 238.514 77.028 238.514 C 77.941 238.514,78.201 238.340,78.201 237.732 C 78.201 237.008,77.941 236.950,74.682 236.950 C 71.424 236.950,71.163 237.008,71.163 237.732 M79.765 242.033 L 79.765 247.116 83.089 247.116 C 87.057 247.116,88.108 246.082,84.360 245.866 L 82.307 245.748 82.186 244.282 L 82.064 242.815 83.652 242.815 C 85.901 242.815,86.008 241.362,83.773 241.177 C 82.435 241.066,82.296 240.945,82.184 239.785 L 82.062 238.514 84.237 238.514 C 86.152 238.514,86.413 238.420,86.413 237.732 C 86.413 237.011,86.152 236.950,83.089 236.950 L 79.765 236.950 79.765 242.033 M87.977 242.033 L 87.977 247.116 89.134 247.116 L 90.291 247.116 90.405 243.893 L 90.518 240.669 91.637 243.893 C 92.742 247.076,92.773 247.116,94.081 247.116 L 95.406 247.116 95.406 242.033 L 95.406 236.950 94.428 236.950 C 93.476 236.950,93.451 237.023,93.451 239.765 C 93.451 242.955,93.173 242.888,91.900 239.394 C 91.016 236.969,90.997 236.950,89.493 236.950 L 87.977 236.950 87.977 242.033 M96.970 237.732 C 96.970 238.340,97.230 238.514,98.143 238.514 L 99.316 238.514 99.316 242.815 L 99.316 247.116 100.489 247.116 L 101.662 247.116 101.662 242.815 L 101.662 238.514 102.835 238.514 C 103.747 238.514,104.008 238.340,104.008 237.732 C 104.008 237.008,103.747 236.950,100.489 236.950 C 97.230 236.950,96.970 237.008,96.970 237.732 M105.572 242.033 L 105.572 247.116 106.745 247.116 L 107.918 247.116 107.918 242.033 L 107.918 236.950 106.745 236.950 L 105.572 236.950 105.572 242.033 M110.938 241.544 C 109.640 247.138,109.641 247.116,110.843 247.116 C 111.557 247.116,111.879 246.853,112.064 246.118 C 112.406 244.756,114.689 244.852,114.885 246.237 C 114.986 246.945,115.261 247.116,116.292 247.116 L 117.573 247.116 116.389 242.033 L 115.204 236.950 113.604 236.950 L 112.004 236.950 110.938 241.544 M119.257 242.033 L 119.257 247.116 122.190 247.116 C 124.536 247.116,125.122 246.999,125.122 246.530 C 125.122 246.095,124.666 245.943,123.363 245.943 L 121.603 245.943 121.603 241.447 L 121.603 236.950 120.430 236.950 L 119.257 236.950 119.257 242.033 M135.679 241.989 L 135.679 247.116 136.657 247.116 C 137.569 247.116,137.634 246.986,137.634 245.161 C 137.634 243.240,137.655 243.206,138.833 243.206 C 144.107 243.206,143.751 237.318,138.459 237.019 L 135.679 236.862 135.679 241.989 M144.282 242.033 L 144.282 247.116 145.259 247.116 C 146.170 247.116,146.237 246.984,146.237 245.184 C 146.237 243.104,146.583 242.624,147.804 243.012 C 148.443 243.215,148.583 243.605,148.583 245.188 C 148.583 247.070,148.611 247.116,149.756 247.116 C 151.038 247.116,151.572 243.615,150.459 242.502 C 150.094 242.138,150.094 241.929,150.459 241.564 C 152.479 239.544,150.386 236.950,146.736 236.950 L 144.282 236.950 144.282 242.033 M153.666 237.732 C 152.995 238.402,152.885 239.031,152.890 242.131 C 152.897 246.644,153.461 247.507,156.403 247.507 C 159.344 247.507,159.908 246.644,159.916 242.131 C 159.923 237.659,159.443 236.950,156.403 236.950 C 154.969 236.950,154.239 237.159,153.666 237.732 M161.877 242.033 L 161.877 247.116 162.854 247.116 C 163.822 247.116,163.832 247.082,163.832 243.728 C 163.832 239.713,164.080 239.743,164.948 243.866 C 165.648 247.190,167.389 248.592,167.921 246.261 C 168.035 245.764,168.373 244.301,168.674 243.011 L 169.219 240.665 169.263 243.891 L 169.306 247.116 170.479 247.116 L 171.652 247.116 171.652 242.033 L 171.652 236.950 169.937 236.950 L 168.221 236.950 167.730 239.589 C 166.808 244.541,166.693 244.478,165.578 238.416 C 165.315 236.986,165.267 236.950,163.593 236.950 L 161.877 236.950 161.877 242.033 M174.389 237.732 C 173.719 238.402,173.608 239.031,173.613 242.131 C 173.620 246.644,174.184 247.507,177.126 247.507 C 180.068 247.507,180.632 246.644,180.639 242.131 C 180.647 237.659,180.166 236.950,177.126 236.950 C 175.692 236.950,174.963 237.159,174.389 237.732 M182.209 237.732 C 182.209 238.340,182.470 238.514,183.382 238.514 L 184.555 238.514 184.555 242.815 L 184.555 247.116 185.728 247.116 L 186.901 247.116 186.901 242.815 L 186.901 238.514 188.074 238.514 C 188.987 238.514,189.247 238.340,189.247 237.732 C 189.247 237.008,188.987 236.950,185.728 236.950 C 182.470 236.950,182.209 237.008,182.209 237.732 M190.811 242.033 L 190.811 247.116 193.939 247.116 C 196.459 247.116,197.067 247.002,197.067 246.530 C 197.067 246.087,196.590 245.943,195.112 245.943 L 193.157 245.943 193.157 244.379 L 193.157 242.815 194.721 242.815 C 196.025 242.815,196.285 242.685,196.285 242.033 C 196.285 241.382,196.025 241.251,194.721 241.251 C 193.195 241.251,193.157 241.219,193.157 239.883 L 193.157 238.514 195.112 238.514 C 196.807 238.514,197.067 238.410,197.067 237.732 C 197.067 237.015,196.807 236.950,193.939 236.950 L 190.811 236.950 190.811 242.033 M203.411 237.559 C 201.451 238.931,202.243 240.797,205.863 243.339 C 206.537 243.812,206.847 244.348,206.767 244.903 C 206.603 246.061,205.045 246.272,204.699 245.184 C 204.315 243.973,202.542 244.075,202.542 245.309 C 202.542 246.517,203.332 247.141,205.166 247.380 C 209.632 247.964,210.690 244.248,206.845 241.486 C 204.670 239.923,204.185 238.514,205.823 238.514 C 206.338 238.514,206.860 238.778,206.984 239.101 C 207.332 240.006,209.189 239.860,209.189 238.927 C 209.189 237.835,207.702 236.950,205.865 236.950 C 204.993 236.950,203.889 237.224,203.411 237.559 M211.144 242.033 L 211.144 247.116 212.295 247.116 C 213.389 247.116,213.453 247.024,213.566 245.290 C 213.727 242.824,214.378 242.773,215.365 245.148 C 216.095 246.904,216.312 247.116,217.378 247.116 C 218.823 247.116,218.821 247.390,217.400 244.051 C 215.990 240.737,215.990 240.738,217.147 239.172 C 218.708 237.060,218.723 236.950,217.464 236.950 C 216.498 236.950,216.093 237.286,214.997 239.000 L 213.685 241.049 213.567 239.000 C 213.453 237.018,213.411 236.950,212.296 236.950 L 211.144 236.950 211.144 242.033 M220.137 242.033 L 220.137 247.116 221.310 247.116 L 222.483 247.116 222.483 242.033 L 222.483 236.950 221.310 236.950 L 220.137 236.950 220.137 242.033 M224.829 242.033 L 224.829 247.116 227.957 247.116 C 231.629 247.116,232.675 246.088,229.228 245.867 L 227.370 245.748 227.260 241.349 L 227.149 236.950 225.989 236.950 L 224.829 236.950 224.829 242.033 M232.649 242.033 L 232.649 247.116 235.777 247.116 C 238.297 247.116,238.905 247.002,238.905 246.530 C 238.905 246.087,238.427 245.943,236.950 245.943 L 234.995 245.943 234.995 241.447 L 234.995 236.950 233.822 236.950 L 232.649 236.950 232.649 242.033 M240.947 237.559 C 239.252 238.747,239.744 240.589,242.252 242.441 C 243.900 243.659,244.397 244.253,244.305 244.898 C 244.139 246.060,242.582 246.276,242.236 245.184 C 241.852 243.973,240.078 244.075,240.078 245.309 C 240.078 246.564,240.924 247.180,242.913 247.376 C 247.295 247.808,248.189 244.221,244.381 241.486 C 242.206 239.923,241.722 238.514,243.360 238.514 C 243.875 238.514,244.397 238.778,244.521 239.101 C 244.858 239.979,246.725 239.865,246.725 238.966 C 246.725 237.126,242.897 236.193,240.947 237.559 M325.885 241.532 C 328.239 243.944,330.248 245.835,330.349 245.735 C 330.449 245.634,330.452 245.508,330.356 245.455 C 330.259 245.401,328.250 243.509,325.892 241.251 L 321.603 237.146 325.885 241.532 M22.874 239.883 C 22.874 240.872,22.705 241.075,21.799 241.179 C 20.800 241.294,20.723 241.202,20.723 239.883 C 20.723 238.564,20.800 238.471,21.799 238.586 C 22.705 238.690,22.874 238.894,22.874 239.883 M58.847 239.296 C 59.252 240.575,58.707 241.642,57.647 241.642 C 56.798 241.642,56.696 241.474,56.696 240.078 C 56.696 238.292,58.338 237.695,58.847 239.296 M67.462 239.406 C 67.937 241.298,67.485 245.253,66.742 245.707 C 65.285 246.596,64.287 242.628,65.154 239.394 C 65.481 238.171,67.154 238.180,67.462 239.406 M139.785 240.078 C 139.785 242.234,137.885 242.118,137.707 239.952 C 137.589 238.520,137.630 238.463,138.684 238.584 C 139.657 238.695,139.785 238.868,139.785 240.078 M148.387 239.883 C 148.387 240.872,148.218 241.075,147.312 241.179 C 146.313 241.294,146.237 241.202,146.237 239.883 C 146.237 238.564,146.313 238.471,147.312 238.586 C 148.218 238.690,148.387 238.894,148.387 239.883 M157.380 242.229 C 157.380 245.722,157.373 245.748,156.403 245.748 C 155.452 245.748,155.422 245.663,155.310 242.654 C 155.173 238.970,155.333 238.419,156.499 238.585 C 157.339 238.704,157.380 238.875,157.380 242.229 M178.104 242.229 C 178.104 245.722,178.096 245.748,177.126 245.748 C 176.176 245.748,176.145 245.663,176.033 242.654 C 175.896 238.970,176.057 238.419,177.222 238.585 C 178.062 238.704,178.104 238.875,178.104 242.229 M31.461 242.326 C 31.709 243.802,31.656 243.988,30.989 243.988 C 29.869 243.988,29.814 243.795,30.247 241.405 C 30.673 239.053,30.944 239.258,31.461 242.326 M114.279 243.695 C 114.058 244.123,112.610 244.054,112.610 243.617 C 112.610 243.412,112.818 242.312,113.072 241.173 L 113.535 239.101 113.983 241.251 C 114.229 242.434,114.363 243.534,114.279 243.695 M127.193 247.309 C 127.281 249.257,127.855 249.573,128.815 248.202 C 129.855 246.716,129.616 245.552,128.268 245.552 C 127.149 245.552,127.116 245.606,127.193 247.309 M334.176 249.462 C 334.854 250.215,335.494 251.183,335.597 251.613 C 335.780 252.377,335.785 252.377,335.830 251.592 C 335.856 251.125,335.262 250.225,334.409 249.441 L 332.942 248.094 334.176 249.462 M283.675 253.763 C 284.952 255.054,286.074 256.109,286.169 256.109 C 286.502 256.109,282.107 251.505,281.733 251.462 C 281.524 251.437,282.399 252.473,283.675 253.763 M288.172 257.853 C 288.172 258.021,307.062 276.786,307.918 277.469 C 308.133 277.640,303.823 273.257,298.341 267.727 C 288.579 257.881,288.172 257.486,288.172 257.853 " stroke="none" fill="#fbfbfb" fill-rule="evenodd"></path><path id="path1" d="M357.202 177.961 L 344.034 190.954 357.019 203.688 C 371.902 218.284,370.298 217.029,372.073 215.471 C 372.835 214.802,373.622 214.356,373.821 214.479 C 374.021 214.602,374.075 214.417,373.940 214.067 C 373.771 213.624,373.883 213.470,374.310 213.558 C 374.648 213.628,374.892 213.580,374.852 213.452 C 374.707 212.982,375.858 211.942,376.253 212.186 C 376.477 212.324,376.549 212.258,376.414 212.038 C 376.100 211.531,377.470 210.260,377.905 210.654 C 378.083 210.816,378.117 210.751,377.979 210.511 C 377.639 209.914,394.791 193.033,395.373 193.393 C 395.627 193.550,395.713 193.497,395.573 193.270 C 395.272 192.783,396.626 191.478,397.022 191.874 C 397.177 192.029,397.183 191.809,397.036 191.386 C 396.888 190.962,394.585 188.408,391.918 185.709 C 389.252 183.011,387.208 180.651,387.376 180.466 C 387.545 180.280,387.483 180.243,387.239 180.383 C 386.700 180.691,385.812 179.726,386.220 179.276 C 386.380 179.100,386.310 179.070,386.066 179.210 C 385.595 179.479,384.773 178.737,384.882 178.141 C 384.917 177.946,384.619 177.739,384.219 177.680 C 383.819 177.622,380.691 174.790,377.266 171.387 C 373.842 167.984,370.890 165.148,370.705 165.084 C 370.520 165.020,364.444 170.815,357.202 177.961 M326.380 208.178 L 313.171 221.201 323.804 231.715 C 329.652 237.498,334.734 242.493,335.099 242.815 C 335.463 243.138,336.669 244.277,337.778 245.346 L 339.794 247.291 344.585 242.512 C 348.928 238.179,350.493 236.870,349.716 238.221 C 349.553 238.505,349.584 238.573,349.791 238.384 C 349.986 238.205,350.147 237.853,350.147 237.602 C 350.147 237.351,350.411 237.146,350.733 237.146 C 351.056 237.146,351.328 236.882,351.337 236.559 C 351.347 236.237,351.580 236.021,351.855 236.080 C 352.130 236.139,352.256 236.027,352.135 235.831 C 351.844 235.360,352.864 234.528,353.276 234.901 C 353.452 235.060,353.481 234.991,353.342 234.746 C 353.034 234.207,353.998 233.320,354.449 233.728 C 354.625 233.887,354.662 233.830,354.532 233.601 C 354.401 233.371,356.924 230.558,360.139 227.349 C 363.353 224.141,365.982 221.337,365.981 221.119 C 365.979 220.756,340.367 195.405,339.827 195.232 C 339.696 195.190,333.645 201.016,326.380 208.178 M306.549 227.631 C 305.367 228.730,299.411 234.563,293.315 240.593 L 282.231 251.557 295.226 264.293 C 310.076 278.845,308.584 277.679,310.264 276.051 C 310.979 275.357,311.736 274.896,311.946 275.025 C 312.155 275.155,312.302 274.954,312.273 274.580 C 312.239 274.157,312.476 273.921,312.899 273.954 C 313.273 273.983,313.502 273.883,313.408 273.730 C 313.313 273.577,318.208 268.491,324.284 262.428 L 335.333 251.404 324.362 240.529 C 313.584 229.843,309.170 225.600,308.858 225.622 C 308.771 225.628,307.732 226.532,306.549 227.631 M65.787 236.829 C 66.163 236.927,66.779 236.927,67.155 236.829 C 67.532 236.730,67.224 236.650,66.471 236.650 C 65.718 236.650,65.411 236.730,65.787 236.829 M155.718 236.829 C 156.095 236.927,156.711 236.927,157.087 236.829 C 157.463 236.730,157.155 236.650,156.403 236.650 C 155.650 236.650,155.342 236.730,155.718 236.829 M176.442 236.829 C 176.818 236.927,177.434 236.927,177.810 236.829 C 178.187 236.730,177.879 236.650,177.126 236.650 C 176.373 236.650,176.065 236.730,176.442 236.829 M242.913 236.829 C 243.289 236.927,243.905 236.927,244.282 236.829 C 244.658 236.730,244.350 236.650,243.597 236.650 C 242.845 236.650,242.537 236.730,242.913 236.829 M38.864 242.229 C 38.865 245.239,38.926 246.419,39.000 244.851 C 39.075 243.282,39.074 240.819,38.999 239.377 C 38.924 237.935,38.863 239.218,38.864 242.229 M40.819 242.229 C 40.820 245.239,40.881 246.419,40.955 244.851 C 41.030 243.282,41.029 240.819,40.954 239.377 C 40.879 237.935,40.818 239.218,40.819 242.229 M54.113 242.229 C 54.114 245.239,54.175 246.419,54.250 244.851 C 54.324 243.282,54.324 240.819,54.249 239.377 C 54.173 237.935,54.113 239.218,54.113 242.229 M119.020 242.229 C 119.021 245.239,119.082 246.419,119.157 244.851 C 119.231 243.282,119.231 240.819,119.156 239.377 C 119.081 237.935,119.020 239.218,119.020 242.229 M190.575 242.229 C 190.575 245.239,190.637 246.419,190.711 244.851 C 190.785 243.282,190.785 240.819,190.710 239.377 C 190.635 237.935,190.574 239.218,190.575 242.229 M210.907 242.229 C 210.908 245.239,210.969 246.419,211.043 244.851 C 211.118 243.282,211.117 240.819,211.042 239.377 C 210.967 237.935,210.906 239.218,210.907 242.229 M227.323 241.251 C 227.323 243.724,227.386 244.736,227.464 243.500 C 227.542 242.263,227.542 240.239,227.464 239.003 C 227.386 237.766,227.323 238.778,227.323 241.251 M232.412 242.229 C 232.413 245.239,232.474 246.419,232.549 244.851 C 232.623 243.282,232.623 240.819,232.548 239.377 C 232.473 237.935,232.412 239.218,232.412 242.229 M14.617 243.011 C 14.617 245.591,14.681 246.596,14.757 245.244 C 14.834 243.891,14.833 241.780,14.756 240.552 C 14.678 239.324,14.616 240.430,14.617 243.011 M76.005 243.011 C 76.005 245.591,76.069 246.596,76.145 245.244 C 76.222 243.891,76.221 241.780,76.144 240.552 C 76.066 239.324,76.004 240.430,76.005 243.011 M101.811 243.011 C 101.812 245.591,101.875 246.596,101.952 245.244 C 102.028 243.891,102.028 241.780,101.950 240.552 C 101.873 239.324,101.810 240.430,101.811 243.011 M43.150 244.184 C 43.148 246.119,43.214 246.960,43.296 246.053 C 43.378 245.145,43.379 243.562,43.299 242.534 C 43.218 241.506,43.151 242.248,43.150 244.184 M83.187 241.136 C 83.671 241.229,84.462 241.229,84.946 241.136 C 85.430 241.043,85.034 240.967,84.066 240.967 C 83.099 240.967,82.703 241.043,83.187 241.136 M193.842 241.136 C 194.326 241.229,195.117 241.229,195.601 241.136 C 196.085 241.043,195.689 240.967,194.721 240.967 C 193.754 240.967,193.358 241.043,193.842 241.136 M151.035 245.161 C 151.035 246.129,151.111 246.525,151.205 246.041 C 151.298 245.557,151.298 244.765,151.205 244.282 C 151.111 243.798,151.035 244.194,151.035 245.161 M264.809 268.550 C 257.659 275.583,251.808 281.514,251.808 281.729 C 251.808 281.944,254.966 285.273,258.825 289.128 C 262.684 292.983,265.750 296.284,265.639 296.465 C 265.527 296.646,265.581 296.768,265.758 296.738 C 266.675 296.578,267.121 296.828,266.908 297.381 C 266.767 297.750,266.837 297.888,267.088 297.733 C 267.315 297.593,269.864 299.819,272.753 302.679 L 278.006 307.881 283.259 302.679 C 286.148 299.819,288.697 297.593,288.924 297.733 C 289.174 297.888,289.245 297.750,289.103 297.381 C 288.891 296.828,289.337 296.578,290.254 296.738 C 290.431 296.768,290.485 296.646,290.373 296.465 C 290.262 296.284,293.328 292.983,297.187 289.128 C 301.046 285.273,304.203 281.941,304.203 281.723 C 304.203 281.360,278.589 256.011,278.047 255.839 C 277.917 255.797,271.960 261.517,264.809 268.550 " stroke="none" fill="#0e7426" fill-rule="evenodd"></path><path id="path2" d="M8.853 228.308 C 6.301 229.991,6.261 230.197,6.261 241.838 C 6.261 253.478,6.301 253.685,8.853 255.367 C 10.607 256.524,246.285 256.524,248.039 255.367 C 250.591 253.685,250.630 253.478,250.630 241.838 C 250.630 230.197,250.591 229.991,248.039 228.308 C 246.285 227.152,10.607 227.152,8.853 228.308 M69.302 237.751 C 70.369 239.068,70.300 245.633,69.208 246.725 C 68.071 247.862,64.707 247.823,63.466 246.657 C 62.330 245.590,62.107 239.337,63.151 237.846 C 64.220 236.320,68.095 236.260,69.302 237.751 M159.170 237.564 C 159.819 238.151,159.922 238.795,159.922 242.267 C 159.922 246.943,159.543 247.507,156.403 247.507 C 153.263 247.507,152.884 246.943,152.884 242.267 C 152.884 238.108,153.096 237.516,154.839 236.817 C 155.844 236.414,158.383 236.852,159.170 237.564 M179.893 237.564 C 180.542 238.151,180.645 238.795,180.645 242.267 C 180.645 246.943,180.266 247.507,177.126 247.507 C 173.986 247.507,173.607 246.943,173.607 242.267 C 173.607 238.108,173.819 237.516,175.562 236.817 C 176.567 236.414,179.106 236.852,179.893 237.564 M207.594 236.998 C 208.713 237.388,209.580 238.573,209.580 239.713 C 209.580 240.520,206.941 240.105,206.720 239.262 C 206.586 238.750,206.254 238.495,205.827 238.578 C 204.720 238.793,204.748 239.627,205.894 240.567 C 209.808 243.778,210.303 244.864,208.620 246.548 C 206.589 248.578,202.151 247.493,202.151 244.966 C 202.151 244.109,202.320 243.988,203.519 243.988 C 204.601 243.988,204.888 244.143,204.888 244.728 C 204.888 245.583,205.703 246.015,206.446 245.556 C 207.220 245.077,206.668 244.150,204.808 242.804 C 200.377 239.600,202.481 235.216,207.594 236.998 M245.572 237.156 C 246.206 237.484,246.728 237.880,246.731 238.035 C 246.734 238.191,246.842 238.715,246.972 239.198 C 247.183 239.988,247.067 240.078,245.839 240.078 C 244.780 240.078,244.422 239.893,244.257 239.262 C 244.123 238.750,243.791 238.495,243.364 238.578 C 242.257 238.793,242.285 239.627,243.431 240.567 C 247.293 243.735,247.740 244.654,246.306 246.477 C 244.607 248.637,239.687 247.502,239.687 244.951 C 239.687 244.111,239.862 243.988,241.056 243.988 C 242.138 243.988,242.424 244.143,242.424 244.728 C 242.424 245.576,243.238 246.016,243.968 245.565 C 244.789 245.058,244.085 243.865,242.231 242.623 C 237.716 239.597,240.735 234.655,245.572 237.156 M17.204 237.732 C 17.204 238.340,16.944 238.514,16.031 238.514 L 14.858 238.514 14.858 243.011 L 14.858 247.507 13.490 247.507 L 12.121 247.507 12.121 243.011 L 12.121 238.514 10.753 238.514 C 9.645 238.514,9.384 238.365,9.384 237.732 C 9.384 237.002,9.645 236.950,13.294 236.950 C 16.944 236.950,17.204 237.002,17.204 237.732 M24.700 237.597 C 25.513 238.333,25.679 240.831,24.963 241.547 C 24.650 241.860,24.634 242.157,24.910 242.505 C 25.130 242.783,25.409 244.022,25.530 245.259 L 25.750 247.507 24.410 247.507 C 23.111 247.507,23.069 247.459,23.069 245.975 C 23.069 243.939,22.748 243.206,21.855 243.206 C 21.218 243.206,21.114 243.507,21.114 245.357 L 21.114 247.507 19.746 247.507 L 18.377 247.507 18.377 242.229 L 18.377 236.950 21.181 236.950 C 23.242 236.950,24.175 237.122,24.700 237.597 M33.728 241.740 C 35.081 247.760,35.087 247.585,33.529 247.434 C 32.544 247.339,32.229 247.109,32.130 246.410 C 31.947 245.120,29.583 245.308,29.396 246.628 C 29.293 247.351,29.025 247.507,27.888 247.507 C 26.944 247.507,26.563 247.352,26.689 247.019 C 26.791 246.750,27.367 244.374,27.970 241.740 L 29.066 236.950 30.859 236.950 L 32.652 236.950 33.728 241.740 M39.101 242.229 L 39.101 247.507 37.732 247.507 L 36.364 247.507 36.364 242.229 L 36.364 236.950 37.732 236.950 L 39.101 236.950 39.101 242.229 M45.077 239.589 L 46.078 242.229 46.108 239.589 L 46.139 236.950 47.312 236.950 L 48.485 236.950 48.485 242.252 L 48.485 247.555 47.045 247.433 C 45.637 247.314,45.582 247.247,44.524 244.379 L 43.442 241.447 43.422 244.477 L 43.402 247.507 42.033 247.507 L 40.665 247.507 40.665 242.229 L 40.665 236.950 42.370 236.950 L 44.076 236.950 45.077 239.589 M60.606 237.732 C 62.615 239.741,61.130 243.206,58.260 243.206 L 56.696 243.206 56.696 245.357 L 56.696 247.507 55.327 247.507 L 53.959 247.507 53.959 242.229 L 53.959 236.950 56.891 236.950 C 59.303 236.950,59.963 237.089,60.606 237.732 M78.592 237.732 C 78.592 238.340,78.332 238.514,77.419 238.514 L 76.246 238.514 76.246 243.011 L 76.246 247.507 74.878 247.507 L 73.509 247.507 73.509 243.011 L 73.509 238.514 72.336 238.514 C 71.424 238.514,71.163 238.340,71.163 237.732 C 71.163 237.005,71.424 236.950,74.878 236.950 C 78.332 236.950,78.592 237.005,78.592 237.732 M86.413 237.732 C 86.413 238.410,86.152 238.514,84.457 238.514 C 82.546 238.514,82.502 238.540,82.502 239.687 C 82.502 240.795,82.589 240.860,84.066 240.860 C 85.474 240.860,85.630 240.958,85.630 241.838 C 85.630 242.717,85.474 242.815,84.066 242.815 C 82.540 242.815,82.502 242.848,82.502 244.184 L 82.502 245.552 84.457 245.552 C 86.282 245.552,86.413 245.617,86.413 246.530 C 86.413 247.496,86.373 247.507,83.089 247.507 L 79.765 247.507 79.765 242.229 L 79.765 236.950 83.089 236.950 C 86.152 236.950,86.413 237.011,86.413 237.732 M92.123 239.492 L 93.019 241.838 93.039 239.394 L 93.060 236.950 94.233 236.950 L 95.406 236.950 95.406 242.229 L 95.406 247.507 94.088 247.507 C 92.795 247.507,92.748 247.447,91.571 244.282 L 90.372 241.056 90.347 244.282 L 90.323 247.507 89.150 247.507 L 87.977 247.507 87.977 242.206 L 87.977 236.905 89.602 237.025 C 91.198 237.144,91.243 237.187,92.123 239.492 M104.399 237.732 C 104.399 238.340,104.138 238.514,103.226 238.514 L 102.053 238.514 102.053 243.011 L 102.053 247.507 100.684 247.507 L 99.316 247.507 99.316 243.011 L 99.316 238.514 97.947 238.514 C 96.839 238.514,96.579 238.365,96.579 237.732 C 96.579 237.002,96.839 236.950,100.489 236.950 C 104.138 236.950,104.399 237.002,104.399 237.732 M108.309 242.229 L 108.309 247.507 106.940 247.507 L 105.572 247.507 105.572 242.229 L 105.572 236.950 106.940 236.950 L 108.309 236.950 108.309 242.229 M115.502 237.634 C 115.860 238.816,117.693 246.777,117.693 247.151 C 117.693 248.020,115.012 247.520,114.885 246.628 C 114.698 245.308,112.334 245.120,112.151 246.410 C 112.036 247.224,109.482 248.108,109.482 247.333 C 109.482 247.210,109.921 245.220,110.458 242.910 C 110.995 240.600,111.526 238.314,111.638 237.830 C 111.908 236.668,115.159 236.504,115.502 237.634 M121.603 241.251 L 121.603 245.552 123.558 245.552 C 125.383 245.552,125.513 245.617,125.513 246.530 C 125.513 247.496,125.474 247.507,122.190 247.507 L 118.866 247.507 118.866 242.229 L 118.866 236.950 120.235 236.950 L 121.603 236.950 121.603 241.251 M141.611 237.597 C 143.646 239.438,142.098 243.206,139.307 243.206 L 138.025 243.206 138.025 245.357 L 138.025 247.507 136.657 247.507 L 135.288 247.507 135.288 242.229 L 135.288 236.950 138.092 236.950 C 140.153 236.950,141.086 237.122,141.611 237.597 M150.141 237.338 C 151.143 237.874,151.530 239.888,150.839 240.974 C 150.383 241.692,150.376 242.003,150.799 242.815 C 151.079 243.353,151.311 244.629,151.314 245.650 L 151.320 247.507 149.972 247.507 L 148.623 247.507 148.505 245.455 C 148.319 242.222,146.628 242.110,146.628 245.330 L 146.628 247.507 145.259 247.507 L 143.891 247.507 143.891 242.229 L 143.891 236.950 146.653 236.950 C 148.173 236.950,149.742 237.125,150.141 237.338 M166.188 240.274 L 166.803 243.402 167.295 240.860 C 168.080 236.803,167.981 236.950,169.919 236.950 L 171.652 236.950 171.652 242.229 L 171.652 247.507 170.495 247.507 L 169.339 247.507 169.225 244.477 L 169.110 241.447 168.517 244.379 C 167.634 248.749,165.849 249.001,164.922 244.888 L 164.322 242.229 164.273 244.868 L 164.223 247.507 163.050 247.507 L 161.877 247.507 161.877 242.207 L 161.877 236.907 163.725 237.026 L 165.573 237.146 166.188 240.274 M189.247 237.732 C 189.247 238.340,188.987 238.514,188.074 238.514 L 186.901 238.514 186.901 243.011 L 186.901 247.507 185.533 247.507 L 184.164 247.507 184.164 243.011 L 184.164 238.514 182.991 238.514 C 182.079 238.514,181.818 238.340,181.818 237.732 C 181.818 237.005,182.079 236.950,185.533 236.950 C 188.987 236.950,189.247 237.005,189.247 237.732 M197.458 237.732 C 197.458 238.419,197.198 238.514,195.308 238.514 C 193.179 238.514,193.157 238.526,193.157 239.687 C 193.157 240.795,193.244 240.860,194.721 240.860 C 196.129 240.860,196.285 240.958,196.285 241.838 C 196.285 242.717,196.129 242.815,194.721 242.815 C 193.195 242.815,193.157 242.848,193.157 244.184 L 193.157 245.552 195.308 245.552 C 197.341 245.552,197.458 245.606,197.458 246.530 C 197.458 247.500,197.432 247.507,193.939 247.507 L 190.420 247.507 190.420 242.229 L 190.420 236.950 193.939 236.950 C 197.198 236.950,197.458 237.008,197.458 237.732 M213.566 238.807 L 213.685 240.665 214.858 238.808 C 215.917 237.133,216.174 236.951,217.497 236.951 L 218.963 236.950 217.570 238.888 L 216.178 240.826 217.571 244.040 C 218.337 245.808,218.964 247.311,218.964 247.381 C 218.964 248.707,216.043 247.232,215.331 245.546 C 214.331 243.178,213.726 243.224,213.566 245.681 C 213.449 247.479,213.426 247.507,212.100 247.507 L 210.753 247.507 210.753 242.229 L 210.753 236.950 212.100 236.950 C 213.429 236.950,213.448 236.974,213.566 238.807 M222.874 242.229 L 222.874 247.507 221.505 247.507 L 220.137 247.507 220.137 242.229 L 220.137 236.950 221.505 236.950 L 222.874 236.950 222.874 242.229 M227.566 241.251 L 227.566 245.552 229.326 245.552 C 230.942 245.552,231.085 245.632,231.085 246.530 C 231.085 247.491,231.033 247.507,227.957 247.507 L 224.829 247.507 224.829 242.229 L 224.829 236.950 226.197 236.950 L 227.566 236.950 227.566 241.251 M234.995 241.251 L 234.995 245.552 236.950 245.552 C 238.775 245.552,238.905 245.617,238.905 246.530 C 238.905 247.496,238.866 247.507,235.582 247.507 L 232.258 247.507 232.258 242.229 L 232.258 236.950 233.627 236.950 L 234.995 236.950 234.995 241.251 M21.114 239.883 C 21.114 241.030,21.248 241.283,21.799 241.177 C 22.267 241.087,22.483 240.679,22.483 239.883 C 22.483 239.087,22.267 238.679,21.799 238.589 C 21.248 238.483,21.114 238.735,21.114 239.883 M56.696 239.883 C 56.696 241.082,56.817 241.251,57.674 241.251 C 58.836 241.251,59.134 239.174,58.033 238.752 C 56.909 238.320,56.696 238.500,56.696 239.883 M65.572 238.761 C 65.038 239.296,65.260 245.454,65.822 245.670 C 66.996 246.120,67.288 245.327,67.172 242.004 C 67.061 238.813,66.552 237.782,65.572 238.761 M138.025 239.854 C 138.025 240.998,138.170 241.251,138.820 241.251 C 140.364 241.251,140.230 238.891,138.668 238.583 C 138.168 238.485,138.025 238.767,138.025 239.854 M146.628 239.883 C 146.628 240.975,146.780 241.251,147.383 241.251 C 148.311 241.251,148.820 239.858,148.176 239.082 C 147.325 238.057,146.628 238.417,146.628 239.883 M155.467 239.133 C 154.402 241.908,155.704 246.876,157.125 245.456 C 158.202 244.378,157.592 238.514,156.403 238.514 C 156.019 238.514,155.598 238.792,155.467 239.133 M176.190 239.133 C 175.159 241.820,176.319 246.709,177.713 245.552 C 178.929 244.543,178.426 238.514,177.126 238.514 C 176.742 238.514,176.321 238.792,176.190 239.133 M30.499 240.551 C 30.499 240.882,30.389 241.703,30.254 242.375 C 30.045 243.421,30.124 243.597,30.799 243.597 C 31.525 243.597,31.559 243.464,31.218 241.947 C 30.822 240.188,30.499 239.559,30.499 240.551 M113.145 241.642 C 112.846 243.041,112.880 243.429,113.307 243.534 C 114.157 243.743,114.259 243.394,113.877 241.580 L 113.520 239.883 113.145 241.642 M129.411 246.628 C 129.380 249.325,127.286 249.965,127.171 247.312 C 127.096 245.603,127.128 245.552,128.259 245.552 C 129.271 245.552,129.422 245.692,129.411 246.628 " stroke="none" fill="#040404" fill-rule="evenodd"></path><path id="path3" d="M276.019 74.994 C 275.463 75.575,269.585 81.373,262.956 87.877 C 251.495 99.123,250.935 99.739,251.552 100.421 C 251.909 100.816,252.069 101.285,251.907 101.463 C 251.745 101.641,251.809 101.675,252.049 101.538 C 252.589 101.230,253.877 102.579,253.471 103.027 C 253.309 103.205,253.373 103.239,253.613 103.102 C 254.027 102.866,255.240 103.869,255.300 104.497 C 255.315 104.658,255.459 104.805,255.621 104.823 C 256.199 104.889,256.879 105.667,256.663 106.017 C 256.541 106.213,256.599 106.325,256.792 106.266 C 257.344 106.096,272.147 120.495,271.874 120.937 C 271.739 121.155,271.806 121.223,272.024 121.089 C 272.394 120.860,274.221 122.445,274.002 122.805 C 273.946 122.897,273.972 122.929,274.060 122.877 C 274.434 122.656,275.238 123.686,275.006 124.091 C 274.867 124.336,274.900 124.402,275.079 124.239 C 275.442 123.909,277.295 125.472,277.037 125.890 C 276.948 126.035,277.390 126.153,278.021 126.153 C 278.651 126.153,279.080 126.066,278.974 125.960 C 278.641 125.627,280.445 123.960,280.860 124.217 C 281.077 124.351,281.142 124.278,281.003 124.054 C 280.690 123.547,281.675 122.676,282.112 123.073 C 282.288 123.232,282.322 123.168,282.186 122.931 C 281.879 122.391,283.614 120.706,284.060 121.111 C 284.240 121.274,284.276 121.212,284.140 120.974 C 283.870 120.500,298.646 106.089,299.220 106.266 C 299.412 106.325,299.470 106.213,299.349 106.017 C 299.145 105.687,300.245 104.473,300.549 104.692 C 300.623 104.746,300.640 104.720,300.587 104.635 C 300.364 104.284,301.994 102.873,302.361 103.100 C 302.581 103.236,302.649 103.167,302.513 102.947 C 302.238 102.501,303.532 101.158,303.942 101.465 C 304.086 101.573,304.115 101.544,304.007 101.400 C 303.899 101.256,304.116 100.801,304.490 100.388 C 305.147 99.662,305.006 99.480,300.288 94.958 C 297.603 92.385,291.702 86.595,287.176 82.090 C 278.254 73.211,277.924 73.001,276.019 74.994 M295.297 116.824 C 287.925 124.076,281.899 130.161,281.905 130.347 C 281.919 130.784,291.600 140.371,292.027 140.371 C 292.578 140.371,293.665 141.786,293.354 142.098 C 293.192 142.259,293.251 142.333,293.484 142.261 C 293.717 142.190,297.283 145.397,301.408 149.389 L 308.908 156.646 319.361 146.435 C 325.110 140.819,331.090 135.019,332.649 133.547 C 334.208 132.074,335.484 130.560,335.484 130.181 C 335.484 129.589,309.843 103.979,308.999 103.727 C 308.834 103.678,302.669 109.572,295.297 116.824 M335.477 138.253 C 333.223 140.529,330.965 142.555,330.461 142.755 C 329.956 142.954,329.452 143.468,329.340 143.895 C 329.228 144.323,328.993 144.673,328.817 144.673 C 328.126 144.673,312.871 160.507,313.191 160.893 C 313.373 161.111,313.536 161.422,313.554 161.584 C 313.573 161.745,313.672 161.833,313.776 161.779 C 313.880 161.725,319.693 167.466,326.695 174.536 L 339.425 187.391 344.785 182.161 C 347.734 179.284,353.783 173.342,358.229 168.957 C 362.675 164.571,366.522 160.854,366.777 160.696 C 367.087 160.504,366.616 159.839,365.364 158.699 C 363.185 156.715,357.358 151.024,347.373 141.128 C 343.482 137.271,340.136 134.115,339.937 134.115 C 339.738 134.115,337.731 135.977,335.477 138.253 M269.100 142.805 C 264.525 147.380,258.602 153.148,255.939 155.621 C 253.275 158.094,251.080 160.220,251.061 160.345 C 251.042 160.470,253.533 163.021,256.597 166.014 C 259.661 169.008,265.731 174.970,270.087 179.264 L 278.006 187.072 285.925 179.264 C 290.281 174.970,296.353 169.005,299.420 166.009 L 304.996 160.562 291.834 147.632 C 284.596 140.520,278.391 134.653,278.046 134.593 C 277.669 134.528,274.110 137.794,269.100 142.805 M353.079 147.810 L 366.178 160.686 360.313 166.442 C 357.087 169.607,351.162 175.447,347.145 179.419 L 339.843 186.640 327.055 174.072 C 320.022 167.159,314.087 161.614,313.867 161.750 C 313.646 161.887,313.584 161.807,313.729 161.573 C 313.873 161.340,313.808 161.036,313.585 160.898 C 313.361 160.759,316.960 156.950,321.583 152.431 C 326.206 147.913,329.949 144.019,329.901 143.778 C 329.853 143.537,330.015 143.332,330.260 143.322 C 330.505 143.312,332.659 141.413,335.046 139.101 C 337.434 136.789,339.521 134.906,339.684 134.916 C 339.847 134.926,345.875 140.729,353.079 147.810 M307.387 165.817 C 306.664 166.657,305.940 167.262,305.777 167.161 C 305.508 166.995,304.008 168.367,304.008 168.779 C 304.008 169.304,285.141 187.655,284.862 187.401 C 284.678 187.234,284.642 187.297,284.781 187.541 C 284.921 187.786,284.773 188.203,284.453 188.469 C 284.133 188.735,283.865 188.799,283.858 188.611 C 283.834 187.978,282.307 190.110,282.307 190.777 C 282.307 191.140,284.506 193.612,287.195 196.270 C 289.883 198.927,292.082 201.208,292.082 201.338 C 292.082 201.468,292.478 201.754,292.962 201.974 C 293.446 202.195,293.798 202.588,293.744 202.849 C 293.690 203.110,293.866 203.280,294.135 203.226 C 294.404 203.172,294.565 203.392,294.493 203.715 C 294.422 204.037,294.501 204.163,294.671 203.994 C 294.840 203.824,298.097 206.801,301.909 210.609 L 308.840 217.532 322.064 204.522 C 329.338 197.367,335.340 191.293,335.404 191.024 C 335.488 190.666,308.985 164.057,308.741 164.256 C 308.718 164.274,308.109 164.977,307.387 165.817 M361.876 172.447 C 357.360 176.981,351.346 182.915,348.511 185.635 C 342.889 191.029,342.981 190.866,344.673 192.408 C 345.318 192.996,351.300 198.858,357.967 205.435 C 364.633 212.012,370.269 217.395,370.491 217.396 C 371.419 217.404,397.263 191.802,397.263 190.875 C 397.263 190.157,371.488 164.536,370.539 164.311 C 370.290 164.251,366.391 167.913,361.876 172.447 M322.036 177.768 C 335.388 190.819,335.668 191.146,334.300 192.105 C 333.863 192.410,328.055 198.065,321.392 204.670 C 314.729 211.276,309.123 216.622,308.934 216.551 C 308.035 216.214,282.698 191.355,282.698 190.810 C 282.698 190.667,282.830 190.419,282.991 190.257 C 283.152 190.096,283.284 189.759,283.284 189.508 C 283.284 189.257,283.480 189.052,283.718 189.052 C 284.358 189.052,305.365 168.524,305.266 167.996 C 305.219 167.749,305.375 167.582,305.612 167.625 C 305.849 167.668,306.631 167.096,307.350 166.354 C 308.069 165.612,308.730 165.005,308.818 165.005 C 308.907 165.005,314.854 170.748,322.036 177.768 M383.931 177.852 C 391.049 184.811,396.872 190.728,396.872 191.001 C 396.872 191.274,395.684 192.595,394.233 193.936 C 392.781 195.277,386.970 200.941,381.319 206.522 C 375.667 212.104,370.811 216.615,370.525 216.547 C 370.240 216.478,364.163 210.692,357.021 203.688 L 344.034 190.954 357.202 177.961 C 364.444 170.815,370.509 165.020,370.680 165.084 C 370.851 165.148,376.814 170.894,383.931 177.852 M332.392 201.796 C 328.433 205.845,325.073 209.084,324.925 208.992 C 324.778 208.901,323.906 209.656,322.988 210.669 C 322.069 211.683,319.359 214.535,316.964 217.008 L 312.610 221.504 316.320 217.986 C 327.035 207.824,340.908 193.819,339.701 194.382 C 339.640 194.411,336.350 197.747,332.392 201.796 M264.208 208.163 L 250.997 221.191 262.057 232.125 C 268.141 238.138,274.218 244.086,275.562 245.342 L 278.006 247.626 280.450 245.342 C 281.794 244.086,287.871 238.138,293.955 232.124 L 305.018 221.189 291.845 208.248 C 284.601 201.131,278.391 195.269,278.046 195.222 C 277.681 195.171,271.915 200.563,264.208 208.163 M281.581 198.770 C 286.776 203.653,304.203 221.050,304.203 221.353 C 304.203 221.741,278.403 246.921,278.006 246.921 C 277.609 246.921,251.808 221.741,251.808 221.353 C 251.808 220.744,277.598 195.459,278.061 195.615 C 278.200 195.661,279.783 197.081,281.581 198.770 M348.974 204.106 C 353.271 208.407,356.874 211.926,356.982 211.926 C 357.089 211.926,353.662 208.407,349.365 204.106 C 345.068 199.804,341.464 196.285,341.356 196.285 C 341.249 196.285,344.677 199.804,348.974 204.106 M363.930 218.585 C 365.059 219.775,365.982 220.948,365.982 221.193 C 365.982 221.699,340.329 246.921,339.813 246.921 C 339.326 246.921,335.426 243.216,323.906 231.810 C 318.290 226.250,313.553 221.701,313.378 221.701 C 313.203 221.701,313.431 222.097,313.885 222.581 C 314.338 223.065,315.476 224.296,316.412 225.318 C 317.349 226.339,318.329 227.175,318.589 227.175 C 318.849 227.175,319.018 227.395,318.964 227.664 C 318.910 227.933,319.054 228.119,319.283 228.079 C 319.512 228.038,324.075 232.393,329.423 237.755 C 334.771 243.118,339.355 247.550,339.609 247.604 C 339.864 247.659,346.011 241.896,353.269 234.800 C 360.527 227.703,366.660 221.774,366.897 221.624 C 367.134 221.475,367.241 221.299,367.134 221.233 C 367.028 221.168,365.801 220.059,364.409 218.768 L 361.877 216.422 363.930 218.585 M294.822 238.153 C 287.404 245.448,281.486 251.417,281.672 251.417 C 282.251 251.417,284.502 249.296,296.672 237.283 C 303.175 230.863,308.671 225.611,308.886 225.611 C 309.101 225.611,315.066 231.329,322.142 238.319 C 329.218 245.308,335.149 251.026,335.322 251.026 C 335.495 251.026,335.098 250.455,334.439 249.756 C 333.781 249.057,332.822 247.982,332.310 247.368 C 331.798 246.754,330.972 246.094,330.475 245.902 C 329.978 245.711,329.683 245.373,329.820 245.152 C 329.956 244.932,329.889 244.799,329.670 244.858 C 329.451 244.917,324.856 240.489,319.458 235.017 C 314.060 229.544,309.343 225.027,308.976 224.978 C 308.559 224.922,303.249 229.865,294.822 238.153 M48.178 241.911 L 48.094 247.067 46.823 247.224 L 45.552 247.382 46.835 247.445 C 48.498 247.526,48.533 247.393,48.387 241.621 L 48.263 236.755 48.178 241.911 M92.995 239.530 C 92.923 240.949,92.996 242.191,93.157 242.290 C 93.319 242.389,93.451 241.228,93.451 239.710 C 93.451 236.231,93.169 236.119,92.995 239.530 M108.002 241.911 L 107.918 247.067 106.647 247.224 L 105.376 247.382 106.659 247.445 C 108.322 247.526,108.357 247.393,108.211 241.621 L 108.087 236.755 108.002 241.911 M135.466 242.130 L 135.484 247.312 136.657 247.312 C 137.814 247.312,137.830 247.282,137.867 245.161 L 137.904 243.011 137.749 245.064 C 137.608 246.931,137.508 247.116,136.648 247.116 C 135.702 247.116,135.702 247.114,135.575 242.033 L 135.448 236.949 135.466 242.130 M144.068 242.130 L 144.086 247.312 145.259 247.312 C 146.416 247.312,146.433 247.282,146.469 245.161 L 146.507 243.011 146.351 245.064 C 146.210 246.931,146.110 247.116,145.250 247.116 C 144.305 247.116,144.304 247.114,144.177 242.033 L 144.051 236.949 144.068 242.130 M222.567 241.911 L 222.483 247.067 221.212 247.224 L 219.941 247.382 221.224 247.445 C 222.887 247.526,222.922 247.393,222.776 241.621 L 222.652 236.755 222.567 241.911 M20.822 239.883 C 20.826 240.743,20.906 241.049,21.000 240.562 C 21.093 240.076,21.090 239.372,20.992 238.998 C 20.894 238.625,20.818 239.022,20.822 239.883 M82.202 239.687 C 82.202 240.440,82.283 240.748,82.381 240.371 C 82.479 239.995,82.479 239.379,82.381 239.003 C 82.283 238.627,82.202 238.935,82.202 239.687 M137.733 239.883 C 137.737 240.743,137.817 241.049,137.911 240.562 C 138.004 240.076,138.001 239.372,137.903 238.998 C 137.805 238.625,137.729 239.022,137.733 239.883 M146.335 239.883 C 146.340 240.743,146.420 241.049,146.513 240.562 C 146.607 240.076,146.603 239.372,146.505 238.998 C 146.407 238.625,146.331 239.022,146.335 239.883 M184.341 243.011 L 184.360 247.312 185.728 247.363 C 187.072 247.413,187.074 247.411,185.839 247.241 L 184.580 247.069 184.451 242.889 L 184.321 238.710 184.341 243.011 M61.088 240.078 C 61.088 240.831,61.168 241.139,61.267 240.762 C 61.365 240.386,61.365 239.770,61.267 239.394 C 61.168 239.018,61.088 239.326,61.088 240.078 M62.700 242.229 C 62.699 244.164,62.765 245.005,62.847 244.098 C 62.929 243.190,62.930 241.607,62.849 240.579 C 62.768 239.551,62.701 240.293,62.700 242.229 M67.387 242.229 C 67.389 243.949,67.457 244.604,67.540 243.685 C 67.623 242.765,67.621 241.357,67.537 240.557 C 67.453 239.756,67.386 240.508,67.387 242.229 M207.176 239.786 C 207.373 239.983,207.951 240.079,208.459 239.999 C 209.242 239.876,209.187 239.821,208.101 239.641 C 207.324 239.512,206.959 239.569,207.176 239.786 M244.713 239.786 C 244.910 239.983,245.487 240.079,245.996 239.999 C 246.779 239.876,246.724 239.821,245.638 239.641 C 244.861 239.512,244.496 239.569,244.713 239.786 M65.035 242.229 C 65.037 243.734,65.108 244.302,65.192 243.491 C 65.277 242.680,65.276 241.448,65.189 240.754 C 65.103 240.060,65.034 240.723,65.035 242.229 M163.838 243.669 L 163.832 247.064 162.757 247.245 C 161.735 247.416,161.740 247.422,162.854 247.368 L 164.027 247.312 164.223 244.242 C 164.330 242.554,164.289 240.970,164.131 240.723 C 163.973 240.476,163.841 241.802,163.838 243.669 M82.260 244.184 L 82.307 245.748 84.362 245.782 L 86.417 245.816 84.482 245.664 C 82.575 245.515,82.545 245.492,82.381 244.066 L 82.214 242.620 82.260 244.184 M20.792 245.039 C 20.725 247.017,20.692 247.071,19.453 247.224 L 18.182 247.382 19.465 247.445 C 20.975 247.518,21.222 247.082,21.012 244.717 L 20.860 243.011 20.792 245.039 M202.285 244.592 C 202.158 244.923,202.164 245.305,202.298 245.439 C 202.432 245.573,202.542 245.401,202.542 245.057 C 202.542 244.674,202.960 244.368,203.617 244.268 L 204.692 244.105 203.605 244.047 C 202.943 244.011,202.426 244.225,202.285 244.592 M239.822 244.592 C 239.695 244.923,239.700 245.305,239.834 245.439 C 239.968 245.573,240.078 245.401,240.078 245.057 C 240.078 244.674,240.496 244.368,241.153 244.268 L 242.229 244.105 241.141 244.047 C 240.480 244.011,239.963 244.225,239.822 244.592 M30.205 245.431 C 30.582 245.529,31.197 245.529,31.574 245.431 C 31.950 245.332,31.642 245.252,30.890 245.252 C 30.137 245.252,29.829 245.332,30.205 245.431 M112.708 245.431 C 113.084 245.529,113.700 245.529,114.076 245.431 C 114.453 245.332,114.145 245.252,113.392 245.252 C 112.639 245.252,112.331 245.332,112.708 245.431 M123.265 245.827 C 126.434 246.098,125.696 247.056,122.188 247.224 L 119.255 247.365 122.286 247.338 C 125.048 247.314,125.318 247.242,125.318 246.530 C 125.318 245.857,125.044 245.742,123.363 245.708 L 121.408 245.668 123.265 245.827 M194.037 245.832 C 194.629 245.922,195.596 245.922,196.188 245.832 C 196.779 245.743,196.295 245.669,195.112 245.669 C 193.930 245.669,193.446 245.743,194.037 245.832 M228.451 245.833 C 229.045 245.923,229.925 245.920,230.406 245.828 C 230.887 245.735,230.401 245.661,229.326 245.664 C 228.250 245.667,227.857 245.743,228.451 245.833 M235.875 245.832 C 236.466 245.922,237.434 245.922,238.025 245.832 C 238.617 245.743,238.133 245.669,236.950 245.669 C 235.767 245.669,235.283 245.743,235.875 245.832 M24.242 247.116 L 22.874 247.404 24.122 247.456 C 24.808 247.484,25.478 247.331,25.611 247.116 C 25.744 246.901,25.798 246.748,25.732 246.777 C 25.665 246.805,24.995 246.958,24.242 247.116 M109.482 247.184 C 109.482 247.362,110.010 247.507,110.655 247.507 C 111.300 247.507,111.828 247.439,111.828 247.356 C 111.828 247.273,111.300 247.128,110.655 247.033 C 110.010 246.938,109.482 247.006,109.482 247.184 M149.951 247.116 L 148.778 247.415 150.049 247.461 C 150.748 247.487,151.320 247.331,151.320 247.116 C 151.320 246.901,151.276 246.746,151.222 246.772 C 151.168 246.797,150.596 246.952,149.951 247.116 M165.730 247.215 C 165.927 247.412,166.504 247.508,167.013 247.428 C 167.795 247.305,167.740 247.250,166.654 247.070 C 165.877 246.941,165.513 246.998,165.730 247.215 M216.180 247.225 C 216.368 247.414,217.028 247.505,217.645 247.428 C 218.679 247.299,218.652 247.272,217.302 247.085 C 216.462 246.969,215.983 247.029,216.180 247.225 M12.610 247.386 C 12.986 247.484,13.602 247.484,13.978 247.386 C 14.355 247.288,14.047 247.207,13.294 247.207 C 12.542 247.207,12.234 247.288,12.610 247.386 M32.942 247.386 C 33.319 247.484,33.935 247.484,34.311 247.386 C 34.687 247.288,34.379 247.207,33.627 247.207 C 32.874 247.207,32.566 247.288,32.942 247.386 M36.852 247.386 C 37.229 247.484,37.845 247.484,38.221 247.386 C 38.597 247.288,38.289 247.207,37.537 247.207 C 36.784 247.207,36.476 247.288,36.852 247.386 M54.839 247.386 C 55.215 247.484,55.831 247.484,56.207 247.386 C 56.584 247.288,56.276 247.207,55.523 247.207 C 54.770 247.207,54.462 247.288,54.839 247.386 M73.998 247.386 C 74.374 247.484,74.990 247.484,75.367 247.386 C 75.743 247.288,75.435 247.207,74.682 247.207 C 73.930 247.207,73.622 247.288,73.998 247.386 M81.439 247.404 C 82.467 247.485,84.051 247.484,84.958 247.402 C 85.866 247.320,85.024 247.254,83.089 247.255 C 81.153 247.256,80.411 247.323,81.439 247.404 M88.465 247.386 C 88.842 247.484,89.457 247.484,89.834 247.386 C 90.210 247.288,89.902 247.207,89.150 247.207 C 88.397 247.207,88.089 247.288,88.465 247.386 M93.548 247.386 C 93.925 247.484,94.541 247.484,94.917 247.386 C 95.293 247.288,94.985 247.207,94.233 247.207 C 93.480 247.207,93.172 247.288,93.548 247.386 M99.804 247.386 C 100.181 247.484,100.797 247.484,101.173 247.386 C 101.549 247.288,101.241 247.207,100.489 247.207 C 99.736 247.207,99.428 247.288,99.804 247.386 M115.836 247.386 C 116.212 247.484,116.828 247.484,117.204 247.386 C 117.581 247.288,117.273 247.207,116.520 247.207 C 115.767 247.207,115.459 247.288,115.836 247.386 M169.795 247.386 C 170.171 247.484,170.787 247.484,171.163 247.386 C 171.540 247.288,171.232 247.207,170.479 247.207 C 169.726 247.207,169.418 247.288,169.795 247.386 M192.278 247.403 C 193.192 247.485,194.687 247.485,195.601 247.403 C 196.515 247.320,195.767 247.253,193.939 247.253 C 192.111 247.253,191.364 247.320,192.278 247.403 M211.632 247.386 C 212.009 247.484,212.625 247.484,213.001 247.386 C 213.377 247.288,213.069 247.207,212.317 247.207 C 211.564 247.207,211.256 247.288,211.632 247.386 M226.295 247.403 C 227.209 247.485,228.705 247.485,229.619 247.403 C 230.533 247.320,229.785 247.253,227.957 247.253 C 226.129 247.253,225.381 247.320,226.295 247.403 M234.115 247.403 C 235.029 247.485,236.525 247.485,237.439 247.403 C 238.353 247.320,237.605 247.253,235.777 247.253 C 233.949 247.253,233.201 247.320,234.115 247.403 M334.859 251.945 C 330.384 256.635,309.167 277.224,308.810 277.224 C 308.538 277.224,304.619 273.573,300.101 269.110 L 291.887 260.997 299.902 269.135 C 309.805 279.190,308.684 278.574,311.715 275.618 C 324.361 263.286,335.510 252.089,335.410 251.822 C 335.343 251.642,335.095 251.697,334.859 251.945 M282.307 251.916 C 282.307 251.975,283.671 253.339,285.337 254.946 L 288.368 257.869 285.445 254.839 C 282.730 252.024,282.307 251.630,282.307 251.916 M271.359 261.267 C 256.574 275.723,251.026 281.304,251.026 281.720 C 251.026 282.152,258.738 289.903,271.107 301.903 C 274.550 305.243,277.628 307.918,278.028 307.918 C 278.830 307.918,304.985 282.536,304.985 281.758 C 304.985 281.301,298.622 274.893,284.719 261.352 C 281.207 257.931,278.216 255.093,278.072 255.045 C 277.928 254.998,274.907 257.797,271.359 261.267 M291.244 268.620 C 298.372 275.609,304.203 281.532,304.203 281.783 C 304.203 282.303,278.534 307.527,278.006 307.527 C 277.481 307.527,251.808 282.305,251.808 281.789 C 251.808 281.291,277.667 255.718,278.047 255.839 C 278.178 255.880,284.116 261.632,291.244 268.620 " stroke="none" fill="#41d33b" fill-rule="evenodd"></path><path id="path4" d="M328.880 145.224 C 323.157 150.904,317.289 156.666,315.838 158.030 L 313.202 160.508 326.524 173.572 L 339.847 186.636 347.147 179.417 C 351.162 175.446,357.087 169.607,360.313 166.442 L 366.178 160.686 353.079 147.810 C 345.875 140.729,339.824 134.926,339.632 134.916 C 339.441 134.906,334.602 139.544,328.880 145.224 M295.685 177.827 C 288.527 184.861,282.677 190.718,282.684 190.843 C 282.717 191.387,308.087 216.233,308.934 216.551 C 309.123 216.622,314.729 211.276,321.392 204.670 C 328.055 198.065,333.863 192.410,334.300 192.105 C 334.736 191.799,335.093 191.320,335.093 191.040 C 335.093 190.606,309.231 164.975,308.839 165.021 C 308.763 165.030,302.843 170.793,295.685 177.827 M274.487 198.690 C 268.615 204.274,251.808 221.069,251.808 221.353 C 251.808 221.741,277.609 246.921,278.006 246.921 C 278.403 246.921,304.203 221.741,304.203 221.353 C 304.203 220.835,278.860 195.883,278.061 195.615 C 277.923 195.568,276.315 196.952,274.487 198.690 " stroke="none" fill="#0bc40b" fill-rule="evenodd"></path></g></svg>